<svg width="82" height="64" viewBox="0 0 82 64" fill="none" xmlns="http://www.w3.org/2000/svg">
<path fill-rule="evenodd" clip-rule="evenodd" d="M75.9601 19.2944C76.0081 19.4954 76.2136 19.6008 76.3987 19.5179L76.3928 19.5564C77.4643 19.085 78.0543 19.8333 78.6911 20.6411C79.1278 21.1951 79.5866 21.777 80.2379 22.0125C80.018 21.9867 79.7853 21.9898 79.5552 21.9929C79.2536 21.9969 78.9562 22.0009 78.6974 21.9397C78.5121 21.8953 78.3531 22.0006 78.2918 22.1752C78.2391 22.3263 78.0846 22.4027 77.8901 22.4503C78.2806 22.905 78.1919 22.8543 77.9777 22.7321C77.8181 22.6411 77.5889 22.5103 77.4362 22.519C77.357 23.1324 77.9304 23.7622 78.3598 24.0778C78.1115 24.6415 78.5252 25.0333 78.9495 25.4351L78.9541 25.4395C78.0488 25.4645 78.2443 27.6599 78.3723 28.7854C78.398 29.0036 78.6352 29.1271 78.833 29.026C79.9123 28.4762 79.7266 28.9165 79.1827 30.1508L79.1619 30.4473C79.2655 30.5431 79.3813 30.5314 79.4911 30.5204C79.6418 30.5052 79.7814 30.4912 79.8631 30.7578C79.9671 30.8659 80.0861 30.8268 80.1933 30.7916C80.3136 30.752 80.419 30.7173 80.4715 30.9017C80.1987 30.8786 80.2926 31.1395 80.3882 31.4047C80.5157 31.7586 80.646 32.1204 79.9112 31.8257C79.731 31.7249 79.8073 31.6026 79.8816 31.4836C79.9681 31.3449 80.0519 31.2106 79.7238 31.12C78.8545 30.8958 78.803 31.297 78.7326 31.8457C78.7159 31.976 78.6981 32.1146 78.6681 32.2551C78.6548 32.3418 78.6609 32.4306 78.7143 32.5C79.5659 33.7573 80.1843 35.3469 78.5554 35.9796C78.4038 36.0367 78.3164 36.1889 78.351 36.3493L78.6135 37.4648C78.6723 37.6915 78.4654 37.8847 78.2413 37.8361C78.2745 38.5841 78.2811 39.3439 78.2476 40.1091C78.8116 42.1826 78.4754 42.7047 78.0033 42.7959C77.9914 42.8841 77.9806 42.9725 77.9698 43.0608L77.9697 43.0615C77.948 43.2387 77.9263 43.416 77.896 43.5924L77.9514 43.7452C77.1564 48.0943 74.2763 51.4157 71.3822 54.7533L71.3822 54.7533L71.3822 54.7533C70.8342 55.3853 70.2858 56.0178 69.7508 56.6579C69.6918 56.6976 69.6365 56.7422 69.5828 56.7853C69.5566 56.8064 69.5308 56.8272 69.5051 56.847C69.4264 57.5535 69.2645 57.967 68.8078 57.6044C68.7337 57.6992 68.6616 57.795 68.5893 57.8909L68.5893 57.891C68.3689 58.1838 68.1479 58.4773 67.8698 58.7425C67.4413 58.6963 67.055 58.9318 66.6636 59.1704C66.4177 59.3203 66.1697 59.4714 65.9079 59.5548C64.8685 59.4287 63.8914 59.9631 62.9406 60.4831C62.2413 60.8656 61.5563 61.2402 60.8711 61.3387C60.7295 61.3642 60.5912 61.455 60.454 61.5452C60.2278 61.6937 60.0043 61.8405 59.7729 61.6906C59.3997 61.7226 59.0131 61.8112 58.6494 61.8946L58.6493 61.8946C58.3709 61.9584 58.106 62.0191 57.8707 62.049C57.8114 62.3993 57.65 62.3549 57.4596 62.3026C57.3153 62.263 57.1544 62.2188 57.0087 62.3382C56.6876 62.3827 56.3743 62.5016 56.0605 62.6206L56.0605 62.6206C55.5973 62.7964 55.1329 62.9726 54.6402 62.9108C54.3763 62.9355 54.0908 63.1213 53.807 63.3059C53.279 63.6494 52.757 63.9891 52.3914 63.2809C52.4378 63.1623 52.3288 63.0962 52.2234 63.0324C52.145 62.9849 52.0687 62.9387 52.0598 62.873C51.7058 62.9568 51.5043 62.7415 51.3081 62.5318C51.1417 62.354 50.979 62.1801 50.7301 62.196C50.7223 62.1619 50.7183 62.1248 50.7142 62.0863C50.7043 61.9944 50.6937 61.8944 50.6271 61.8079C50.42 61.7208 50.4063 61.8528 50.3923 61.9871C50.3841 62.066 50.3758 62.1456 50.3283 62.1821C49.9058 62.0142 49.4572 62.1129 49.1854 62.5684C49.3772 62.8835 49.1784 62.9408 48.9476 63.0073C48.8137 63.0458 48.669 63.0875 48.5837 63.1844C48.3999 63.078 48.3562 62.8504 48.3155 62.6383C48.271 62.4066 48.23 62.1935 48.0138 62.1779C47.8585 62.4619 47.5979 62.5084 47.3485 62.5528C47.0699 62.6025 46.8052 62.6497 46.7169 63.0226C46.4915 63.2893 46.1786 63.35 45.8503 63.4137C45.5212 63.4776 45.1766 63.5444 44.8895 63.8249C44.4799 64.055 44.0695 63.7758 43.8197 63.5089C43.3429 63.4798 42.8764 63.3444 42.4027 63.2069L42.4026 63.2069C41.7274 63.0109 41.0374 62.8106 40.2814 62.9076C39.0593 62.7939 37.8866 62.5499 36.7153 62.3063C35.6385 62.0822 34.5628 61.8584 33.4513 61.7364L33.4976 61.5308C33.5996 61.4993 33.7113 61.5344 33.8245 61.5699C33.9981 61.6244 34.1751 61.68 34.3253 61.4975C34.1835 61.1052 33.9545 60.9924 33.5871 60.85C33.3543 60.9221 33.2075 60.8244 33.0665 60.7306C32.9163 60.6306 32.7726 60.535 32.5385 60.6538C32.3854 60.5554 32.391 60.4148 32.3967 60.2751C32.3995 60.2062 32.4022 60.1375 32.3859 60.0742L31.1977 59.8239C31.3643 59.7977 31.5147 59.716 31.6136 59.5209C31.4029 58.9351 31.0562 58.3688 30.6898 57.8348C30.6248 57.889 30.5609 57.9445 30.4969 58.0001C30.433 58.0557 30.3691 58.1112 30.3041 58.1654C30.156 58.2964 29.9431 58.2392 29.8296 58.0801C29.3455 57.3815 27.9614 57.4773 27.3971 58.2344C27.4483 58.093 27.4351 58.0182 27.3855 57.9884C27.116 58.2042 26.8371 58.3848 26.5917 58.5395C26.3846 58.6186 26.1711 58.5304 25.9484 58.4384C25.676 58.3259 25.3897 58.2076 25.0839 58.3821L24.5448 58.8138C24.2875 58.6698 24.4006 58.4294 24.5131 58.1903C24.5712 58.0668 24.6291 57.9436 24.6358 57.8343C24.67 57.74 24.7288 57.6778 24.8014 57.622C24.5983 57.6932 24.4091 57.7707 24.2628 57.8578C24.4968 57.6299 24.6193 57.377 24.7429 57.1219C24.8823 56.8341 25.0231 56.5435 25.3268 56.2828C25.1389 56.1577 24.9862 56.2675 24.8142 56.3912C24.7694 56.4235 24.7232 56.4567 24.6748 56.4869C24.6355 56.5367 24.6336 56.4984 24.6307 56.4387C24.6273 56.3686 24.6224 56.2692 24.5537 56.2486L23.7141 57.0985C23.6013 56.7495 23.849 56.4853 24.0943 56.2237C24.2413 56.0669 24.3875 55.911 24.4546 55.7384C24.549 55.2833 24.5268 55.1389 24.4463 55.1498C25.7014 53.2513 24.2777 51.8275 22.6224 50.1723C21.2922 48.842 19.8124 47.3622 19.4533 45.3663L18.7073 45.2517C18.1895 45.331 18.1507 44.8123 18.1184 44.3802C18.1085 44.2482 18.0993 44.1244 18.0772 44.0281C17.9827 43.6163 17.9818 43.2685 18.0572 42.6155C18.1187 42.0483 17.751 42.0383 17.1634 42.0225C17.069 42.0199 16.9689 42.0172 16.8641 42.012C16.1699 41.9734 15.956 41.0733 15.8431 40.5984L15.8431 40.5983C15.8337 40.5586 15.825 40.5219 15.8167 40.4889C15.7099 40.0611 15.8946 38.695 16.0653 37.9348C15.969 38.0441 15.8718 38.1533 15.7746 38.2625L15.7745 38.2626C15.4264 38.6537 15.0788 39.0442 14.7761 39.4365C15.756 37.2207 17.4938 32.2461 17.054 29.2017C17.0333 29.0476 17.1069 28.889 17.2555 28.8512C17.7209 28.7397 18.0012 27.9716 17.755 27.617C17.714 27.5636 17.6409 27.5263 17.573 27.519C17.5213 27.5125 17.4674 27.5083 17.413 27.504C17.1981 27.4873 16.9752 27.47 16.8474 27.3038C19.1698 27.0425 19.4412 25.7348 19.8174 23.9217C20.1331 22.4007 20.5225 20.524 22.2584 18.6109C22.299 18.5712 22.3478 18.5422 22.4048 18.5238C25.0251 17.7858 27.3684 14.9534 29.0003 12.9809C29.1703 12.7755 29.3326 12.5793 29.4866 12.3958C29.5231 12.3508 29.5678 12.3164 29.6192 12.3023C30.3135 12.0626 30.943 11.7633 31.5599 11.47C32.5282 11.0095 33.4654 10.5639 34.5727 10.387C34.699 10.3663 34.801 10.2794 34.8299 10.1552C34.8723 9.9836 34.8569 9.79029 34.8418 9.60029C34.8153 9.2673 34.7896 8.94444 35.0772 8.76649C35.2083 8.68266 35.2889 8.51012 35.2112 8.37442C35.0763 8.12973 34.7586 8.01716 34.4115 7.93572C34.0782 7.86066 34.0965 7.38761 34.4311 7.32569C35.235 7.17793 36.0164 6.93066 36.7979 6.68341C37.7803 6.37254 38.7628 6.06168 39.7898 5.94857C39.9452 5.93102 40.0799 6.04838 40.1312 6.19592C40.2245 6.46142 40.4544 6.42519 40.6995 6.38657C40.8866 6.35707 41.0827 6.32618 41.2336 6.42725C41.3728 6.51569 41.5405 6.51416 41.6607 6.40468C41.8673 6.21029 42.1355 6.0558 42.3858 5.91164C42.7353 5.71034 43.0498 5.52919 43.1127 5.28769C43.1604 5.07246 43.3846 4.95949 43.5749 5.06812C44.3895 5.53782 45.2258 5.93144 46.2386 5.52627L46.0943 5.53525C46.1505 5.46773 46.2584 5.44087 46.3565 5.41643C46.5327 5.37255 46.6773 5.33653 46.434 5.08698L46.6078 5.17426C46.6078 5.17426 47.8291 4.85518 49.1426 4.15917C50.0081 3.69969 50.3872 3.75705 50.8144 3.82169C51.0384 3.85557 51.2755 3.89145 51.6028 3.85596C52.5545 3.75274 54.2345 3.59079 54.2345 3.59079C54.2605 3.58992 54.2867 3.58938 54.313 3.58884C54.3917 3.58722 54.4705 3.58559 54.5423 3.57496C54.5423 3.57496 55.198 2.83259 55.7931 2.77422C56.0136 2.7526 56.2736 2.6667 56.5561 2.57341C57.036 2.41486 57.5806 2.23499 58.1051 2.31304C58.9383 2.43703 60.1612 2.68622 60.539 2.8885C60.6614 2.95301 60.8771 3.01232 61.1282 3.08137C61.6438 3.22316 62.3087 3.40601 62.6222 3.75923C63.0885 4.28446 63.4295 5.01659 63.4295 5.01659C64.2249 5.03366 64.5628 5.20713 63.712 5.77666C63.4931 5.91959 63.5301 6.25662 63.7788 6.33727C64.8052 6.67728 65.4982 7.50453 66.2047 8.3479L66.2049 8.34806C66.4179 8.60242 66.6323 8.85825 66.8573 9.10262C67.103 9.36413 66.8069 9.75341 66.491 9.59696C66.4002 9.54813 66.308 9.50891 66.2158 9.46968L66.2157 9.46965L66.215 9.46933C65.9513 9.35769 65.6911 9.60881 65.7981 9.87499C65.8577 10.0212 65.9054 10.1734 65.9519 10.3214C66.1707 11.0186 66.3607 11.6239 67.6176 11.0846C67.6062 10.9654 67.6265 11.0593 67.6643 11.2342L67.6643 11.2343C67.6892 11.3497 67.7217 11.5003 67.7578 11.6482C67.8166 11.8749 68.0777 11.9716 68.262 11.8298L68.9545 11.2971C69.122 11.1682 69.3584 11.2328 69.4425 11.4231C69.6257 11.8492 69.7323 12.3518 69.8377 12.8487C70.121 14.184 70.3956 15.4784 72.124 15.1399C72.2615 15.1106 72.3954 15.1691 72.4664 15.2845C72.8773 15.9458 73.5606 16.5335 74.2121 16.2363C74.4236 16.1416 74.6579 16.2844 74.6668 16.5155C74.6767 16.9329 74.6962 17.2239 75.1758 17.2118C75.3935 17.2059 75.5413 17.3981 75.5033 17.6144C75.4346 17.9996 75.6037 18.3895 75.7596 18.7491C75.843 18.9413 75.9225 19.1249 75.9601 19.2944ZM8.70411 36.3923C8.8013 36.5791 8.92506 36.817 8.87055 36.9965L8.8765 36.992C8.71373 37.543 8.85597 38.1338 9.23919 38.5582L8.2945 39.4458L8.42806 40.5542C8.20832 40.7972 7.9935 41.0319 7.78241 41.2625C7.56125 41.5041 7.3442 41.7412 7.1299 41.9787C6.59627 42.5028 5.91491 42.8471 5.17366 42.9537C5.06162 42.9926 4.95876 43.0433 4.85908 43.1106C4.78226 43.3305 4.66931 43.2944 4.55087 43.1773C4.47405 43.1513 4.39493 43.1838 4.3492 43.2473C4.24221 43.4526 4.14573 43.4133 4.04192 43.2661C2.59278 42.8953 1.35577 41.9638 0.597544 40.683C0.579289 40.6593 0.562405 40.6251 0.54552 40.5909L0.545415 40.5906C0.511573 40.522 0.104948 38.0624 0.115919 37.9782C0.117037 37.9696 0.117479 37.9602 0.117943 37.9503C0.119185 37.9237 0.120583 37.8938 0.135567 37.8685C0.373643 37.5082 0.521114 37.1081 0.668754 36.7075L0.668755 36.7075C0.868194 36.1663 1.06794 35.6243 1.49176 35.1787C1.71857 34.9569 1.95909 34.7529 2.22248 34.5787C2.32726 34.5025 2.43901 34.4354 2.55076 34.3682C2.67848 34.2915 2.8062 34.2148 2.9235 34.1246C3.41507 33.718 4.06713 33.5571 4.68996 33.7024C4.74754 33.7142 4.80363 33.7374 4.8591 33.7603C4.94415 33.7955 5.02773 33.8301 5.11297 33.8218C5.84554 33.7408 6.58496 33.9763 7.13554 34.4706C7.60244 34.7454 7.98838 35.1487 8.22984 35.6348C8.36795 35.8881 8.52254 36.1382 8.69494 36.3746L8.70411 36.3923ZM10.6476 46.8711C10.2438 46.7275 9.7952 46.8455 9.52176 47.1789C9.31279 47.387 9.17058 47.6572 9.10657 47.943C8.85098 48.8777 9.12128 49.881 9.80769 50.5642C10.0583 50.8161 10.3871 50.9606 10.7428 50.9802C10.8869 50.983 11.0232 50.9633 11.1622 50.9226C11.7168 50.6473 12.0959 50.1191 12.1965 49.5118C12.2193 49.0495 12.1731 48.5835 12.0492 48.1395C11.9614 47.8286 11.7944 47.5501 11.5548 47.337C11.2617 47.1651 10.9553 47.0128 10.6416 46.8757L10.6476 46.8711ZM11.4214 52.502C11.5467 52.4435 11.6935 52.4252 11.8348 52.4489L11.8453 52.4503C11.9976 52.5129 12.132 52.5893 12.2637 52.6867C12.5802 52.9259 12.7782 53.294 12.7906 53.6913C12.8615 54.091 12.808 54.5012 12.6219 54.862C12.4664 55.1519 12.1138 55.2717 11.818 55.1208C11.566 55.0024 11.3685 54.7948 11.2573 54.5397C11.1361 54.1976 11.0254 53.8569 10.9326 53.5025C10.9609 53.1212 11.1365 52.759 11.4214 52.502Z" fill="#C79941"/>
<path d="M61.6717 3.58105C62.0144 3.71346 62.3583 3.8429 62.7039 3.97302C63.0027 4.09057 63.2923 4.2268 63.5705 4.38252C63.8352 4.52466 64.1004 4.6653 64.3651 4.80744C64.8007 5.04451 65.2241 5.2974 65.6488 5.55246C66.1117 5.83212 66.57 6.11855 67.018 6.42148C67.9144 7.02071 68.7742 7.66226 69.593 8.34112C70.2724 8.91306 70.9576 9.48041 71.641 10.0471C72.0015 10.3409 72.3375 10.656 72.6481 10.9889C72.8633 11.2076 73.0497 11.4426 73.2082 11.691C73.3267 11.8869 73.4818 12.0677 73.6656 12.227C73.9562 12.4979 74.2216 12.7865 74.4604 13.0906C74.7125 13.398 74.9557 13.7123 75.189 14.0313C75.5063 14.4618 75.8353 14.8832 76.1738 15.3013C76.2305 15.3702 76.2954 15.4338 76.3527 15.5012C76.4389 15.5796 76.4816 15.6858 76.4667 15.7856C76.4562 15.8683 76.4889 15.9571 76.5576 16.0272C76.7312 16.2575 76.9102 16.4846 77.0709 16.7219C77.2167 16.9383 77.3372 17.1672 77.47 17.3907C77.498 17.4369 77.5266 17.4817 77.5571 17.5271C77.6182 17.6062 77.6735 17.69 77.7193 17.7769C77.809 17.9501 77.9083 18.12 78.017 18.2868C78.084 18.4106 78.1806 18.5218 78.2994 18.6124C78.4399 18.7112 78.5466 18.8449 78.5993 18.9905C78.6063 19.0101 78.6401 19.0246 78.6621 19.043L78.7522 19.0616C78.7023 18.9307 78.6548 18.7989 78.6026 18.6687C78.5178 18.4549 78.3963 18.2562 78.2997 18.0464C78.2119 17.8569 78.089 17.673 77.9958 17.4815C77.9162 17.358 77.8627 17.2257 77.839 17.091C77.835 17.0742 77.8268 17.0575 77.8157 17.0431C77.6522 16.786 77.5513 16.505 77.3765 16.2504C77.2501 16.0703 77.1509 15.8782 77.0844 15.6815C77.0332 15.5432 76.957 15.4108 76.8589 15.2872C76.6735 15.044 76.5638 14.7647 76.3785 14.5215C76.1987 14.2856 76.046 14.0326 75.8803 13.7866C75.8686 13.7737 75.845 13.7597 75.8465 13.7501C75.8627 13.6797 75.8555 13.6055 75.8244 13.5344C75.7961 13.4778 75.854 13.4503 75.9335 13.453L76.1445 13.7433C76.1738 13.7917 76.2013 13.8394 76.2306 13.8879C76.2736 13.9602 76.2395 13.8861 76.2395 13.8861C76.3579 14.0548 76.4768 14.2219 76.5927 14.3914C76.6144 14.4217 76.6313 14.4535 76.6417 14.4863C76.7472 14.7606 76.9019 15.0246 77.1004 15.2659C77.3893 15.684 77.6468 16.1142 77.8997 16.5511C78.1438 16.9728 78.3696 17.3995 78.5871 17.8316C78.7701 18.1963 78.9348 18.5711 79.0983 18.9437C79.2745 19.3483 79.4329 19.7565 79.5859 20.1677C79.7467 20.6022 79.8624 21.047 80.0226 21.483C80.2112 21.9977 80.3485 22.522 80.4864 23.0448C80.6242 23.5625 80.7436 24.0851 80.8612 24.6071C80.9385 24.9507 81.0063 25.2975 81.0663 25.6431C81.1514 26.1359 81.2324 26.6288 81.3009 27.1221C81.3626 27.5618 81.416 28.0018 81.4485 28.4424C81.4955 29.0806 81.4922 29.7152 81.4384 30.341C81.384 30.941 81.3141 31.5386 81.2111 32.1305C81.1511 32.4819 81.1038 32.8381 81.0516 33.1908C81.0433 33.2404 81.0404 33.292 81.0435 33.3441C81.0609 33.7094 81.0149 34.0678 80.9098 34.4073C80.6745 35.2521 80.4247 36.0913 80.1808 36.9312C80.1971 36.9373 80.2147 36.9456 80.2304 36.9532L79.4754 38.959C79.4611 38.9638 79.4432 38.9621 79.428 38.953C79.2133 39.3312 79.0391 39.7281 78.9084 40.1412C78.619 40.9486 78.2426 41.7233 77.7834 42.4548C77.5227 42.8837 77.2336 43.2951 76.9359 43.7015C76.5118 44.2848 76.0475 44.8376 75.5576 45.3706C75.2976 45.6552 75.0309 45.9356 74.7647 46.2145C74.6058 46.3842 74.4712 46.5716 74.3609 46.7714C74.2954 46.8794 74.2184 46.9796 74.1275 47.0729C73.9783 47.2003 73.8401 47.337 73.7147 47.4836C73.7119 47.491 73.7036 47.4964 73.6972 47.5025C73.3732 47.7155 73.1197 47.9992 72.8001 48.2171C72.5485 48.3859 72.3296 48.5942 72.0891 48.7774C71.8633 48.9491 71.6277 49.1086 71.3958 49.2746C71.2149 49.4038 71.028 49.5272 70.8527 49.6635C70.6202 49.831 70.3779 49.9863 70.1233 50.1301C69.8543 50.2958 69.5841 50.4593 69.3095 50.6177C69.1087 50.7614 68.892 50.8872 68.6603 50.9921C68.5232 51.0544 68.3924 51.1276 68.2707 51.2093C68.1863 51.2744 68.0865 51.3253 67.9756 51.3566C67.8706 51.3885 67.7725 51.4349 67.6898 51.4955C67.4716 51.614 67.241 51.7108 67.0228 51.8293C66.7922 51.9533 66.5292 52.0209 66.3084 52.1519C66.0376 52.2948 65.7527 52.4205 65.4566 52.5266C65.1673 52.6472 64.8731 52.7592 64.5757 52.8631C64.3921 52.9283 64.2008 52.9753 64.0133 53.0288C63.9847 53.0334 63.9592 53.0408 63.9357 53.054C63.7791 53.1736 63.5662 53.1682 63.3867 53.2333C63.1954 53.3024 62.9982 53.3488 62.8043 53.4084C62.4182 53.5283 62.0205 53.6132 61.6299 53.7178C61.0285 53.8773 60.4071 53.9749 59.7934 54.0957C59.5276 54.1487 59.2519 54.1673 58.9822 54.2086C58.8421 54.2187 58.7085 54.2552 58.5929 54.3153C58.5711 54.3293 58.545 54.3381 58.5158 54.339C58.2198 54.3568 57.9287 54.4002 57.6495 54.4668C57.3094 54.5139 56.9689 54.5677 56.6249 54.5979C56.2426 54.6309 55.8624 54.6747 55.4786 54.69C54.1773 54.7493 52.8609 54.7281 51.5394 54.6267C50.9299 54.5775 50.3179 54.529 49.7088 54.451C48.8845 54.3465 48.0615 54.222 47.2413 54.09C46.5747 53.9836 45.9085 53.8654 45.2458 53.7265C44.8899 53.6401 44.536 53.5374 44.1876 53.4199C43.6469 53.2537 43.109 53.0853 42.5716 52.9102C42.3029 52.8226 42.0363 52.724 41.7709 52.6275C41.5219 52.5371 41.2647 52.4794 41.0059 52.4534C40.9874 52.4805 40.9357 52.4916 40.9644 52.5415L40.0107 52.1825L40.0238 52.1092C39.9132 52.0574 39.8036 52.0025 39.6924 51.9522C39.5812 51.9018 39.4643 51.8612 39.3536 51.8093C39.0736 51.675 38.7947 51.5377 38.517 51.4026C38.145 51.2218 37.7718 51.0439 37.4021 50.8571C36.99 50.651 36.579 50.4419 36.1726 50.226C35.9033 50.0906 35.6414 49.941 35.3906 49.7786C34.246 49.0044 33.1125 48.2173 32.027 47.3684C31.3249 46.8184 30.6316 46.2617 29.9732 45.667C29.6803 45.4021 29.4009 45.1235 29.0952 44.8707C28.792 44.6223 28.5836 44.2922 28.3061 44.0194C28.0966 43.8131 27.9087 43.5876 27.7162 43.369C27.5372 43.1639 27.364 42.9542 27.1885 42.7453C27.1503 42.6987 27.1156 42.6482 27.0874 42.5968C26.9998 42.4618 26.9027 42.33 26.7955 42.203C26.668 42.1686 26.6174 42.056 26.5489 41.9691C26.4903 41.8722 26.4045 41.7872 26.3013 41.7211C26.2691 41.7022 26.2422 41.6751 26.2289 41.6446C26.1582 41.5194 26.0976 41.3895 26.0496 41.2592C26.028 41.1848 25.9898 41.116 25.9356 41.0514C25.8557 40.9618 25.7664 40.8806 25.683 40.7948C25.6292 40.7456 25.5789 40.6927 25.5368 40.6343C25.4106 40.4372 25.2579 40.2556 25.1446 40.0515C25.0758 39.927 24.9898 39.8096 24.9109 39.6898C24.8408 39.5852 24.7518 39.4922 24.6482 39.4107C24.5446 39.3292 24.455 39.2377 24.379 39.1377C24.16 38.8359 23.9385 38.535 23.7006 38.2448C23.382 37.8563 23.1176 37.4389 22.8385 37.0278C22.7118 36.8373 22.6278 36.6323 22.591 36.4229C22.5673 36.2661 22.5037 36.1112 22.4064 35.9692C22.2367 35.7337 22.1388 35.4724 22.1174 35.211C22.1 35.043 22.072 34.876 22.0314 34.7094C21.9832 34.4805 21.9184 34.2521 21.8404 34.0255C21.7552 33.7963 21.7652 33.5501 21.6325 33.3319C21.6203 33.2984 21.6165 33.2646 21.6205 33.2321C21.6196 33.174 21.6152 33.1145 21.6023 33.0553C21.5499 32.8707 21.5315 32.6835 21.4988 32.4961C21.4708 32.3343 21.45 32.1701 21.4346 32.0079C21.4171 31.9282 21.4631 31.8554 21.548 31.8329C21.6441 31.8028 21.6562 31.7376 21.5819 31.6825C21.4684 31.5888 21.4107 31.4566 21.4322 31.3337C21.443 30.7122 21.5318 30.103 21.6989 29.5165C21.9145 28.8174 22.1447 28.1237 22.3712 27.4286C22.3865 27.3715 22.4211 27.3233 22.4698 27.2873C22.662 27.1556 22.8095 26.9833 22.8977 26.7819C23.0002 26.5536 23.1674 26.3564 23.3835 26.2049C23.4512 26.1624 23.5041 26.1041 23.5346 26.034C23.6077 25.8728 23.7346 25.7386 23.899 25.6424C24.1278 25.4956 24.3131 25.3053 24.4456 25.0849C24.7171 24.6821 24.9461 24.2549 25.1769 23.8284C25.3804 23.4358 25.6118 23.0571 25.8705 22.6938C26.0341 22.446 26.2413 22.2248 26.4876 22.037L26.5011 22.0285C25.5964 22.0993 25.2887 22.8233 24.5324 23.3614C24.2498 23.0527 24.4299 22.6292 24.5866 22.3227C24.9329 21.3753 25.9369 20.7774 27.1323 20.8074C27.1488 19.792 28.9188 20.4854 28.4788 19.3712L28.0499 19.3083C27.6596 19.5932 26.9377 19.2824 26.8554 19.9127C26.2107 19.5561 26.6057 20.5378 26.0258 20.1954C26.4054 19.5988 27.0675 19.3108 27.6549 19.0678L28.725 15.6269C27.7719 14.6952 29.0995 13.8196 28.5599 13.1014C28.251 13.4883 27.9519 13.8823 27.6661 14.2848C27.5967 14.3811 27.5159 14.4696 27.4253 14.5511C27.4032 14.5768 27.3572 14.5782 27.3244 14.5557C27.3067 14.5422 27.2949 14.5242 27.2939 14.5051C27.3023 14.4827 27.3125 14.4611 27.3245 14.4401C27.7854 13.7976 28.2688 13.1721 28.7887 12.5704C28.8828 12.4631 28.9788 12.3564 29.076 12.2519C29.15 12.1046 29.1992 11.9464 29.2256 11.7829C28.9867 12.0279 28.7642 12.2841 28.5369 12.5368C28.4723 12.6095 28.4296 12.7175 28.2841 12.6814C28.2654 12.6761 28.235 12.702 28.2194 12.7216C28.1624 12.7852 28.1097 12.8538 28.0661 12.9257C27.863 13.2896 27.6605 13.652 27.4664 14.0192C27.3122 14.2808 27.1173 14.5185 26.8822 14.7258C26.7431 14.7551 26.7203 14.8706 26.6768 14.9698C26.5116 15.3428 26.35 15.7172 26.1811 16.0888C26.0939 16.2821 25.9977 16.472 25.8965 16.6583C25.6945 17.0413 25.4677 17.4132 25.216 17.769C25.1364 17.8818 25.0845 18.0085 25.0664 18.1445C24.9811 18.5357 24.8489 18.9143 24.6762 19.2743C24.6706 19.2892 24.6617 19.313 24.6498 19.317C24.604 19.3236 24.5592 19.3272 24.5138 19.3271C24.5278 19.2405 24.5363 19.174 24.5502 19.1096C24.5762 19.002 24.5986 18.8932 24.6355 18.7897C24.7751 18.3969 24.9183 18.0054 25.061 17.6154C25.1298 17.4271 25.2425 17.2485 25.1803 17.0296C25.1789 17.0223 25.1865 17.0132 25.1856 17.0044C25.2027 16.7286 25.2737 16.463 25.3962 16.2201C25.5173 15.9477 25.6505 15.6817 25.7728 15.4115C25.9601 15.0128 26.1758 14.6265 26.4206 14.2562C26.8727 13.5492 27.3831 12.8794 27.9117 12.2216C28.5739 11.3846 29.3126 10.5967 30.1222 9.86785C30.3794 9.63999 30.6452 9.41702 30.9208 9.20627C31.2673 8.93891 31.6212 8.67942 31.9794 8.42495C32.4506 8.10082 32.9568 7.81537 33.4964 7.57308C33.6056 7.51899 33.7068 7.45336 33.7975 7.37701C33.9475 7.25838 34.1019 7.14478 34.2623 7.03688C34.5819 6.84099 34.9219 6.66804 35.2779 6.51815C35.5543 6.3876 35.857 6.30263 36.1245 6.15174C36.2223 6.09505 36.33 6.05057 36.4464 6.02129C36.5027 6.00339 36.5571 5.97966 36.6072 5.95092C37.1649 5.67127 37.7592 5.44277 38.3806 5.26866C38.415 5.25953 38.4487 5.24673 38.4807 5.23325C38.5954 5.18635 38.7052 5.13077 38.8244 5.09404C39.2609 4.96085 39.7037 4.83852 40.1459 4.71767C40.6344 4.58365 41.1313 4.4766 41.6289 4.37322C42.048 4.28619 42.4712 4.21597 42.8945 4.1509C43.2689 4.09467 43.6492 4.05592 44.0276 4.01135C44.3345 3.97556 44.6432 3.94046 44.95 3.90467C44.9828 3.9 45.026 3.90605 45.0259 3.85674C45.0501 3.86926 45.0728 3.89139 45.0937 3.89075C45.6148 3.86762 46.1328 3.83649 46.6546 3.81701C47.0277 3.80277 47.4031 3.80466 47.7765 3.80071C47.7974 3.778 47.8369 3.75546 47.8363 3.72972C47.8372 3.69436 47.795 3.68018 47.7543 3.67847C47.6633 3.67313 47.5735 3.6648 47.4831 3.65797L47.4087 3.64698L47.4384 3.59014C47.7039 3.5269 47.9923 3.51817 48.2785 3.56471C48.3205 3.56859 48.3447 3.58111 48.317 3.62169C48.2964 3.63262 48.2771 3.65087 48.2551 3.65448C48.1585 3.66403 48.0618 3.66843 47.9634 3.67729C47.9014 3.68285 47.8931 3.71033 47.9223 3.80292C48.4928 3.81878 49.0639 3.83314 49.6333 3.85197C49.8396 3.85824 50.0473 3.87182 50.2538 3.88324C50.2571 3.8743 50.2611 3.86388 50.2608 3.85358L49.9477 3.80712L50.1951 3.73707L50.1138 3.66225C50.2242 3.68172 50.334 3.69754 50.4425 3.71118C50.7878 3.68307 51.1428 3.70618 51.493 3.78022C51.664 3.78167 51.8348 3.77797 52.0049 3.77062C51.8322 3.7464 51.6604 3.70891 51.4906 3.66032C51.1347 3.57394 50.7738 3.52819 50.4176 3.52498C50.0523 3.51838 49.6824 3.47437 49.317 3.39122C49.3003 3.39172 49.2783 3.39534 49.2662 3.38908C49.2461 3.37644 49.2302 3.35852 49.2189 3.33899C49.224 3.32558 49.2344 3.31423 49.251 3.30857C49.2827 3.30688 49.3161 3.30587 49.3497 3.31C49.7481 3.32738 50.1479 3.35209 50.5461 3.35917C51.1508 3.35559 51.76 3.3894 52.3724 3.45845C52.3958 3.46216 52.4193 3.44378 52.4424 3.4372L52.4409 3.42473C52.3356 3.397 52.2291 3.36711 52.1238 3.33938C52.0794 3.33115 52.0361 3.31996 51.9927 3.30361C51.9764 3.29747 51.9647 3.28458 51.9572 3.27156C51.9461 3.27925 51.9318 3.2841 51.9162 3.28163C51.845 3.27863 51.7749 3.26751 51.7038 3.24758C51.6834 3.24157 51.6681 3.20523 51.633 3.1614L51.8749 3.15555L51.8942 3.09313C51.8401 3.07785 51.7848 3.06553 51.7302 3.05688C51.167 2.99959 50.6044 2.94081 50.0408 2.89016C49.7168 2.86169 49.3918 2.84135 49.0693 2.82535C48.7468 2.80935 48.4235 2.81178 48.1002 2.78697C47.7769 2.76216 47.4646 2.81799 47.1412 2.79318C47.0114 2.78681 46.8838 2.79656 46.7605 2.81648C46.6254 2.8353 46.4907 2.8033 46.3559 2.81548C46.1008 2.84013 45.8431 2.86044 45.5857 2.86382C44.9047 2.89989 44.2305 2.9674 43.5654 3.06555C43.2847 3.11968 42.9892 3.13084 42.6907 3.09498C42.6529 3.09097 42.6153 3.09211 42.5809 3.10125C42.3863 3.1351 42.1917 3.16896 41.9948 3.20363L41.9131 3.28338C41.8674 3.34439 41.7821 3.37347 41.6934 3.36217L41.5388 3.39408C41.5388 3.39408 41.5319 3.37957 41.5281 3.37306C41.5319 3.37957 41.535 3.38757 41.5388 3.39408C41.5259 3.40625 41.5106 3.41407 41.4934 3.42121C40.9012 3.56206 40.3068 3.69193 39.7196 3.8466C39.1603 3.99307 38.6113 4.1672 38.0661 4.35299C37.675 4.48627 37.2813 4.61007 36.9053 4.77455C36.8013 4.82039 36.693 4.8612 36.5852 4.90053C36.5232 4.93332 36.4365 4.92785 36.3697 4.88571L36.6415 4.73984L36.5977 4.65873C36.2242 4.80547 35.844 4.94284 35.4781 5.10259C35.2529 5.20141 35.0289 5.3024 34.8137 5.41859C34.5984 5.53477 34.3653 5.62721 34.1464 5.74203C33.9228 5.85847 33.7049 5.98724 33.4863 6.11236C33.1316 6.31373 32.7688 6.50357 32.4264 6.72149C31.937 7.03366 31.4551 7.35886 30.9836 7.69477C30.5595 7.99245 30.1563 8.31158 29.7763 8.65136C29.4748 8.92545 29.12 9.14891 28.8589 9.46373C28.5018 9.75939 28.1678 10.0757 27.8618 10.411C27.5393 10.7299 27.2449 11.073 26.94 11.4053C26.927 11.4344 26.9067 11.4608 26.884 11.4828C26.8428 11.5098 26.802 11.503 26.7915 11.4429L26.8812 11.2047C26.8975 11.2108 26.9138 11.217 26.9299 11.2179C27.276 10.7158 27.6699 10.2402 28.1084 9.8C28.5088 9.39484 28.9215 9.00108 29.3464 8.61873C29.4972 8.48168 29.651 8.34748 29.8031 8.2126L29.7675 8.17541L29.6458 8.18572C29.6687 8.09743 29.7236 8.02291 29.8036 7.9697C29.8692 7.91619 29.9287 7.85698 29.9961 7.80416C30.084 7.73525 30.1496 7.65966 30.0649 7.54446C30.1365 7.49151 30.1886 7.44651 30.2467 7.40721C30.6628 7.12523 31.0801 6.84542 31.4975 6.5656C31.8154 6.3521 32.1273 6.13289 32.4503 5.92807C32.7586 5.73472 33.0781 5.55577 33.3932 5.37179C33.6553 5.21885 33.9162 5.06375 34.1801 4.9115C34.2856 4.8509 34.3959 4.79383 34.5064 4.74191C34.7456 4.62794 34.9885 4.52049 35.2289 4.4087C35.2691 4.38982 35.3025 4.36157 35.3421 4.34418C35.4807 4.27227 35.6292 4.21257 35.7859 4.16955C35.9951 4.12421 36.173 4.01946 36.2912 3.87015C36.3994 3.75279 36.5638 3.68378 36.7485 3.68187C36.7759 3.6803 36.8021 3.67657 36.8301 3.67351C36.853 3.72802 36.8123 3.74839 36.7728 3.77093C36.6828 3.80677 36.6071 3.85986 36.5502 3.92856C36.5882 3.94286 36.6236 3.96976 36.6485 3.96385C36.916 3.90644 37.172 3.8192 37.407 3.70536C37.6295 3.5919 37.8636 3.49134 38.1047 3.40529C38.1391 3.25336 38.2563 3.13426 38.4218 3.08435C38.5474 3.06362 38.6848 3.08817 38.8017 3.15087C38.9375 3.10849 39.0746 3.06827 39.2091 3.02371C39.2844 2.99935 39.3522 2.96197 39.4255 2.93179C39.4918 2.90402 39.5574 2.87774 39.6244 2.85364C39.8532 2.77826 40.0838 2.70356 40.3144 2.62887C40.3826 2.60693 40.4432 2.57197 40.5151 2.65002C40.5341 2.67079 40.6034 2.66796 40.6438 2.65938C40.8146 2.62845 40.9846 2.59386 41.1522 2.55493C41.4505 2.48702 41.7468 2.41328 42.0476 2.3497C42.2581 2.30653 42.4831 2.29604 42.7091 2.32159C42.8204 2.32779 42.9295 2.31786 43.0347 2.29627C43.4191 2.23017 43.7976 2.14143 44.1836 2.09295C44.8667 1.99646 45.5633 1.94078 46.2656 1.92467C46.5124 1.92235 46.7588 1.90459 47.0061 1.90079C47.2821 1.89758 47.5564 1.89885 47.8327 1.90594C48.2853 1.91653 48.7359 1.91614 49.1879 1.9503C50.3117 2.03331 51.434 2.13109 52.5562 2.22372C52.7125 2.23665 52.8702 2.2569 53.027 2.26835C53.0874 2.26726 53.1452 2.26183 53.2023 2.25274C53.0533 2.17113 52.8861 2.12688 52.7193 2.12531C51.7899 1.97605 50.8616 1.82382 49.9273 1.71521C49.8619 1.70761 49.7976 1.6919 49.734 1.67984L49.5935 1.65244L49.6069 1.59462L49.6999 1.6058C50.08 1.6333 50.4605 1.64901 50.8392 1.69128C51.4103 1.75496 51.9828 1.82596 52.5527 1.91469C53.0873 1.99861 53.6177 2.10989 54.149 2.20789C54.9523 2.35728 55.7444 2.55853 56.5353 2.76275C56.5798 2.77613 56.6255 2.78652 56.6734 2.79096C56.753 2.7937 56.7591 2.75009 56.7277 2.69069C56.6905 2.68519 56.655 2.67522 56.6201 2.66377C56.5839 2.65014 56.5272 2.6526 56.523 2.58133C56.61 2.56987 56.7016 2.57886 56.7913 2.60412C56.8159 2.58277 56.8382 2.54529 56.8662 2.54223C56.9205 2.53544 56.9762 2.54111 57.0327 2.55559C57.2691 2.61909 57.5073 2.67813 57.7381 2.75653C58.4438 2.99498 59.1467 3.24088 59.8508 3.4838C59.8564 3.46891 59.862 3.45402 59.8694 3.43982C59.5091 3.2991 59.1522 3.14945 58.7893 3.02132C58.2383 2.8275 57.6855 2.63814 57.1279 2.46733C56.698 2.33609 56.2568 2.23462 55.8196 2.12273C55.5104 2.04376 55.203 1.96033 54.8906 1.89545C54.3518 1.78442 53.8106 1.67421 53.2683 1.58905C52.6126 1.48672 51.9567 1.40132 51.2987 1.32702C50.809 1.27192 50.3171 1.24486 49.8268 1.20818C49.1048 1.1557 48.3836 1.1341 47.6667 1.14476C47.4548 1.1313 47.2447 1.1406 47.0398 1.16888C46.4848 1.15036 45.9323 1.1634 45.3878 1.20491C44.9133 1.23031 44.4416 1.27035 43.968 1.30456C43.915 1.31352 43.8583 1.31598 43.8015 1.31328C43.7313 1.30216 43.714 1.25484 43.7391 1.18269C44.1573 1.13102 44.5673 1.01335 45.0031 0.997214C45.0718 0.99587 45.1308 0.965381 45.16 0.915183L45.1389 0.856207C44.5938 0.85504 44.0539 0.889784 43.5243 0.957336C42.8434 1.02064 42.1813 1.14372 41.5445 1.32051C41.4699 1.34853 41.3871 1.35987 41.3016 1.35657C41.0886 1.34609 40.8783 1.35024 40.6696 1.36687C40.6478 1.38077 40.6236 1.39034 40.5957 1.39854C40.5571 1.40781 40.513 1.3878 40.4971 1.35295C40.4952 1.34712 40.4915 1.34061 40.4919 1.33397C40.4935 1.30227 40.5114 1.27671 40.5403 1.26038C40.6002 1.24384 40.6639 1.23381 40.7265 1.22677C40.877 1.17805 41.0383 1.15035 41.2048 1.14163C41.4224 1.11812 41.6335 1.0786 41.8396 1.02526C42.0411 0.983831 42.2425 0.937254 42.4446 0.894335C42.5238 0.881634 42.6062 0.876932 42.6906 0.883209C42.7522 0.884289 42.8063 0.828183 42.8916 0.843268C42.9804 0.859715 43.0616 0.808677 43.148 0.798701C43.2371 0.798214 43.3265 0.79109 43.411 0.775284C43.5331 0.736258 43.692 0.780767 43.8093 0.738207C43.9261 0.702286 44.0524 0.685215 44.1821 0.686441C44.282 0.690041 44.3796 0.677516 44.4698 0.651968C44.531 0.637603 44.5954 0.631237 44.6612 0.632191C45.0466 0.607275 45.4321 0.56028 45.8188 0.564765C46.2588 0.570584 46.6935 0.530192 47.1334 0.536011C47.5734 0.541829 48.0173 0.537223 48.4623 0.551723C49.1555 0.576373 49.8495 0.631916 50.5411 0.710347C51.2644 0.792232 51.9888 0.865988 52.7128 0.951532C53.294 1.01564 53.873 1.10778 54.4497 1.22796C54.8601 1.31785 55.2767 1.39135 55.6849 1.49235C56.1402 1.6059 56.5878 1.75059 57.0431 1.8693C57.3958 1.96976 57.7441 2.08729 58.0874 2.21822L58.1042 2.17354L61.4993 3.45157C61.5259 3.53467 61.6092 3.54393 61.6762 3.56914M40.4509 52.2921C40.4647 52.2939 40.4766 52.295 40.491 52.2953C40.4772 52.2935 40.4647 52.2939 40.4509 52.2921ZM40.2958 52.2099C40.2619 52.1903 40.2274 52.1722 40.1917 52.1571C40.2268 52.1737 40.2613 52.1918 40.2958 52.2099ZM37.9076 4.22531C37.9076 4.22531 37.8946 4.21024 37.8867 4.20386C37.8946 4.21024 37.9002 4.21743 37.9076 4.22531ZM39.8094 3.6849L39.8262 3.64023C39.8442 3.61981 39.8745 3.6108 39.905 3.61208C39.8727 3.61012 39.8442 3.61981 39.8262 3.64023C39.8206 3.65512 39.815 3.67001 39.8094 3.6849ZM39.4273 3.74505C39.4057 3.74202 39.3848 3.74265 39.3658 3.74912C39.3848 3.74265 39.4062 3.74053 39.4273 3.74505ZM39.0917 3.82954C39.0993 3.82048 39.1129 3.81713 39.1262 3.82041C39.1129 3.81713 39.0987 3.82197 39.0917 3.82954ZM38.6836 3.95303C38.6586 3.95379 38.6304 3.95171 38.614 3.96251C38.631 3.95022 38.6586 3.95379 38.6836 3.95303C38.6894 3.94329 38.7042 3.93696 38.7174 3.94024C38.7036 3.93845 38.6894 3.94329 38.6836 3.95303ZM40.4549 3.49608C40.4549 3.49608 40.473 3.50289 40.4791 3.50859C40.4791 3.50859 40.4639 3.49948 40.4549 3.49608ZM41.3016 44.2414C41.3016 44.2414 41.3137 44.2476 41.3185 44.2512C41.5263 44.3634 41.7359 44.4763 41.9466 44.5862L42.2391 44.4294C42.1913 44.4301 42.1446 44.4278 42.0955 44.4212C41.9927 44.4199 41.8912 44.3766 41.8213 44.3044C41.7686 44.2302 41.6772 44.1822 41.5815 44.1784C41.4833 44.1976 41.3877 44.2211 41.2998 44.2407M73.6776 35.6987C73.7113 35.5431 73.7403 35.3839 73.7836 35.2303C73.8046 35.1582 73.8418 35.0924 73.8954 35.0377C73.9286 35.0043 73.979 35.0352 73.9798 35.0933L74.0331 35.1219C74.0503 35.0927 74.0657 35.0628 74.0775 35.0315C74.3052 34.3114 74.487 33.5757 74.6238 32.8282C74.7015 32.4188 74.7863 32.0122 74.8694 31.6048C74.901 31.4552 74.9361 31.3069 74.9689 31.1595C74.8984 31.1381 74.9071 31.1974 74.8875 31.2274C74.8657 31.2634 74.8463 31.2986 74.7903 31.2827C74.7207 31.3907 74.6263 31.4878 74.7468 31.6233C74.6383 31.7303 74.5359 31.8431 74.4433 31.9629C74.4195 32.158 74.3993 32.3544 74.3856 32.5498C74.362 32.8486 74.2867 33.1365 74.1607 33.4053C74.0491 33.6523 73.9641 33.911 73.8737 34.1677C73.7983 34.379 73.7761 34.6137 73.5901 34.7783C73.5598 34.8094 73.5393 34.8476 73.5314 34.8905C73.4954 35.03 73.4594 35.1694 73.4367 35.3122C73.3998 35.6791 73.292 36.0312 73.1196 36.3522C73.1025 36.3645 73.087 36.3893 73.0709 36.3883C73.0302 36.3866 73.0139 36.3584 73.0214 36.3221C73.0062 36.313 72.9887 36.3047 72.97 36.2993C72.8456 36.6299 72.7242 36.9633 72.5889 37.2898C72.4733 37.6135 72.2858 37.9084 72.0332 38.1567C72.015 38.2162 71.9726 38.241 71.8823 38.2393L71.9731 37.9981C71.9637 37.9299 71.9644 37.8622 71.9783 37.7977C71.4675 38.3807 71.0454 39.0191 70.7134 39.7033L70.7188 39.7054C70.8767 39.4945 71.0389 39.2887 71.192 39.0743C71.3398 38.8681 71.4779 38.6549 71.6233 38.4444C71.6452 38.4136 71.6742 38.4024 71.7267 38.4442C71.685 38.5713 71.6369 38.7045 71.5985 38.8397C71.5729 38.8912 71.5672 38.9503 71.58 39.0095C71.6107 39.0653 71.6122 39.127 71.5812 39.1766C71.5098 39.3112 71.4336 39.4423 71.352 39.5714C71.3422 39.5864 71.2905 39.5755 71.2589 39.5771C71.2252 39.5679 71.1915 39.5586 71.1572 39.5508C71.1272 39.5922 71.0953 39.6329 71.0653 39.6743C70.851 39.9744 70.6253 40.2669 70.3903 40.5507L70.425 40.6947L69.6337 41.7262C69.8831 41.9969 69.385 42.0083 69.3847 42.2836C69.2271 42.3892 69.1112 42.5326 69.0479 42.7008C69.3731 42.4186 69.6915 42.1271 69.9856 41.8179C70.627 41.1515 71.205 40.4392 71.7176 39.6869C72.0961 39.1205 72.4674 38.5513 72.7968 37.9562C73.1817 37.263 73.5158 36.5456 73.798 35.8069C73.7745 35.798 73.7491 35.7885 73.7234 35.7856C73.6267 35.79 73.6524 35.7436 73.6734 35.6988M72.5959 18.7298C72.6141 18.4069 72.3192 18.2517 72.1571 18.0292C72.1634 18.04 72.1714 18.0515 72.1777 18.0624C72.2889 18.2556 72.4013 18.4509 72.5143 18.6447C72.5407 18.6734 72.5671 18.702 72.5964 18.7283M73.9354 25.3643C73.8146 24.7851 73.6603 24.2068 73.4692 23.6333C73.4484 23.5677 73.4253 23.5029 73.4045 23.4373C73.3199 23.8049 73.2099 24.163 73.074 24.5131C73.0227 24.7097 73.0477 24.9231 73.1441 25.1226C73.3835 24.9203 73.4072 24.5994 73.5487 24.3331C73.4794 24.7643 73.4575 25.2066 73.4836 25.6533L73.5612 25.6009L73.5066 26.2893C73.7134 26.1954 73.7061 25.8526 73.8179 25.808C73.5948 26.1593 73.5298 26.6669 73.4441 27.0426C73.581 26.8545 73.6913 26.6495 73.7726 26.4336C73.6999 26.8516 73.5995 27.261 73.4709 27.663C73.6119 27.541 73.5782 27.7952 73.6746 27.7312C73.8515 27.349 74.0012 26.9514 74.1351 26.5463C74.0769 26.152 74.0091 25.7559 73.9359 25.3629M73.2488 33.5992C73.4533 33.7969 73.0471 33.9211 73.1116 34.112L73.2642 34.0249L72.6294 34.9539C72.5015 35.3868 72.0795 35.7669 72.2153 36.2294C72.2381 36.1853 72.2889 36.2095 72.3257 36.1996C72.2684 36.3684 72.0596 36.4785 72.1577 36.6735L72.1925 36.6798C71.9717 36.7395 72.0992 36.9881 71.993 37.1165C72.1667 37.2753 71.8566 37.3524 72.0143 37.4934L72.209 37.2947C72.2897 37.1296 72.3578 36.9597 72.4241 36.7891C72.4532 36.7117 72.4854 36.6371 72.5182 36.5611C72.4965 36.5529 72.4766 36.5454 72.4549 36.5372C72.4376 36.5171 72.4091 36.4996 72.4062 36.4798C72.3998 36.4366 72.4035 36.3938 72.4126 36.353C72.4934 36.0672 72.6181 35.7962 72.7809 35.5447C72.7843 35.5358 72.8149 35.5422 72.8322 35.5402L72.9514 35.5256C73.1018 35.1096 73.2612 34.697 73.3984 34.2777C73.5061 33.9477 73.5926 33.608 73.6835 33.2733C73.7126 33.1686 73.7422 33.0624 73.77 32.9556C73.6192 33.1861 73.4447 33.4027 73.2459 33.6015M73.6592 22.5522C73.6752 22.5974 73.6926 22.6447 73.7086 22.6898C73.7854 22.9194 73.8249 23.1603 73.9183 23.3842C74.0642 23.7927 74.1814 24.2057 74.267 24.6205C74.3425 24.9141 74.3852 25.2124 74.4409 25.5088C74.4912 25.3203 74.5403 25.1296 74.5887 24.9405C74.567 24.8116 74.5113 24.6852 74.4283 24.5707C74.3851 24.5153 74.3882 24.4468 74.4337 24.4027C74.4879 24.3466 74.496 24.2647 74.4554 24.1916C74.3883 24.0184 74.3118 23.8485 74.2418 23.6777C74.1813 23.5308 74.1233 23.3832 74.0694 23.2354C74.0598 23.2114 74.0598 23.1841 74.07 23.1625C74.1319 23.0583 74.0645 22.9683 74.0139 22.8779C73.9632 22.7874 73.8959 22.6974 73.8469 22.6025C73.813 22.5387 73.7946 22.4723 73.7912 22.4047C73.7881 22.2591 73.7611 22.1112 73.7121 21.967C73.7099 22.165 73.6939 22.3613 73.661 22.5529M74.5157 25.8701C74.5731 26.1348 74.6096 26.4001 74.6437 26.6663C74.6728 26.5889 74.7061 26.5113 74.74 26.4323C74.7182 26.2047 74.6964 25.9772 74.6746 25.7497C74.6658 25.658 74.6384 25.5661 74.6319 25.4735C74.6292 25.4147 74.6266 25.3559 74.6234 25.2986C74.5904 25.4851 74.5486 25.6785 74.5157 25.8701ZM74.8987 28.4368C74.893 28.3038 74.8855 28.17 74.878 28.0363C74.8519 28.1659 74.8601 28.3033 74.8987 28.4368ZM30.3916 11.9787C30.3564 11.9297 30.3288 11.8768 30.3119 11.8229C30.3619 11.6734 30.4223 11.4088 30.6878 11.4391C30.8368 11.4493 30.9834 11.5045 31.1016 11.5966C31.3229 11.4589 31.6495 11.4968 31.8682 11.6845C32.5581 11.4325 32.6832 10.9356 33.1111 10.6275C32.9649 10.1321 32.4753 10.582 32.2478 10.3467C32.1157 9.93999 32.1348 9.67518 32.253 9.49863L32.1931 9.5424L31.734 9.87279C31.6171 10.0022 31.4802 10.1189 31.3291 10.2185C31.0665 10.4494 30.8009 10.6775 30.545 10.9127C30.3297 11.1003 30.1316 11.3028 29.9481 11.5159C29.9022 11.5718 29.8539 11.6233 29.8032 11.6756C30.0061 11.9764 30.1969 12.0295 30.3898 11.978M38.3153 7.63772C38.3374 7.63926 38.3572 7.6416 38.3782 7.64611C38.3964 7.63084 38.4127 7.61489 38.4296 7.59745C38.3713 7.60952 38.3149 7.62227 38.2602 7.6357C38.2787 7.63588 38.2955 7.63537 38.3134 7.63704M73.8976 19.5258C73.9027 19.5176 73.9079 19.5093 73.9089 19.5012C73.9055 19.5101 73.9022 19.5191 73.8976 19.5258ZM74.0697 19.8643L74.0703 19.8629ZM74.1987 20.0761C74.2367 20.0904 74.2614 20.1235 74.2569 20.1575C74.2632 20.1242 74.2373 20.0889 74.1987 20.0761ZM74.2458 20.1924L74.2799 20.2665L74.244 20.1917M74.3353 20.4488C74.3488 20.4403 74.3616 20.4281 74.3667 20.4147C74.3611 20.4296 74.3506 20.441 74.3365 20.451L74.3353 20.4488ZM59.0008 48.7364C59.7248 48.5805 60.4432 48.3954 61.146 48.1805C61.6615 48.0244 62.1749 47.8623 62.6757 47.6683C63.2687 47.4377 63.865 47.215 64.4386 46.9481C64.7192 46.8174 64.9955 46.6817 65.2718 46.5461C65.4931 46.4356 65.7064 46.3136 65.9222 46.1959C66.1822 46.0541 66.4417 45.9137 66.6893 45.7553C66.9563 45.5839 67.2264 45.4152 67.4922 45.2416C67.4891 45.1401 67.5659 45.0568 67.6809 45.0423L67.7209 45.0896C67.8796 44.9811 68.0346 44.8711 68.1846 44.7525C68.3804 44.6001 68.5885 44.4591 68.7848 44.3052C68.8673 44.2343 68.9437 44.1576 69.0134 44.0768C69.0134 44.0768 69.0133 44.0716 69.0126 44.068C68.969 44.0465 68.9236 44.0243 68.8716 43.9979C68.982 43.7759 69.2108 43.6785 69.3603 43.512C69.3783 43.4916 69.4207 43.4889 69.4847 43.467L69.4272 43.6307L69.5249 43.6675C70.0284 43.2467 70.5001 42.8004 70.9419 42.3292C71.7111 41.5375 72.4041 40.69 73.0164 39.7933C73.2008 39.5176 73.3761 39.2385 73.5465 38.9559C73.6906 38.716 73.8194 38.467 73.9598 38.2257C74.2208 37.7851 74.4363 37.3222 74.5994 36.8396C74.6614 36.664 74.7378 36.4939 74.8287 36.3292C74.9224 36.1571 74.9932 35.9746 75.0386 35.7826C75.1425 35.3253 75.2796 34.8788 75.4276 34.4364C75.5271 34.139 75.6314 33.8399 75.6955 33.5325C75.7979 33.0356 75.8707 32.5292 75.952 32.0277C76.0197 31.6009 76.0837 31.1728 76.1418 30.7442C76.1884 30.4064 76.2505 30.0711 76.2612 29.73C76.2757 29.2085 76.2548 28.6821 76.2412 28.1584C76.2349 27.9062 76.2232 27.6519 76.19 27.3997C76.1582 27.1548 76.0948 26.9116 76.0486 26.6665C76.0332 26.5756 76.0351 26.4829 76.0239 26.3919C76.0236 26.2388 75.9994 26.0835 75.9556 25.931C75.9454 25.8813 75.9418 25.8306 75.9441 25.7805C75.9164 25.5576 75.8888 25.3347 75.8611 25.1117C75.7618 25.0132 75.7842 24.9043 75.7976 24.792C75.7991 24.7331 75.791 24.6722 75.7722 24.6125C75.6735 24.1996 75.5837 23.785 75.4724 23.3725C75.3656 22.9702 75.2171 22.5743 75.0858 22.1764C74.938 21.7348 74.7427 21.3094 74.5754 20.8758C74.5457 20.8119 74.5113 20.7497 74.4692 20.6913C74.4679 20.6892 74.4495 20.6941 74.4335 20.6983C74.4324 20.7013 74.4271 20.7044 74.4242 20.7067C74.4242 20.7067 74.4223 20.706 74.4205 20.7053C74.4078 20.7226 74.3982 20.7428 74.3939 20.765C74.3918 20.7982 74.4094 20.8337 74.4054 20.8662C74.4012 20.8884 74.3837 20.9074 74.3582 20.9148C74.3368 20.9169 74.3082 20.8993 74.287 20.8845C74.2705 20.8732 74.26 20.8574 74.2554 20.8421C74.2028 20.6964 74.1323 20.5543 74.0429 20.4186C73.8383 20.0509 73.6562 19.673 73.4611 19.302C73.3984 19.1832 73.3535 19.0609 73.3259 18.9366L73.3035 18.8534L73.3597 18.8524L73.5335 19.0165L73.6205 18.9829C73.5152 18.7138 73.2952 18.4967 73.1839 18.227C73.0832 18.0446 72.97 17.8677 72.8474 17.694C72.5891 17.233 72.289 16.7953 71.987 16.3569C71.8252 16.1226 71.6557 15.8922 71.4935 15.6645C71.2872 15.7076 71.2342 15.5465 71.1275 15.4621C71.1821 15.3994 71.1821 15.3994 71.2608 15.3933C71.2527 15.3546 71.2386 15.3153 71.2179 15.2769C71.1694 15.2025 71.1086 15.1337 71.0548 15.0625C70.9102 14.8482 70.7419 14.6421 70.5555 14.4512C70.5555 14.4512 70.5537 14.4505 70.5525 14.4484C70.7071 14.8993 70.7736 15.3595 70.7489 15.8092C70.9693 16.0911 71.1442 16.3949 71.2631 16.71C71.2761 16.7251 71.2872 16.7395 71.2983 16.7539C71.3608 16.8403 71.4045 16.9383 71.4623 17.0264C71.5467 17.1313 71.6212 17.2409 71.6843 17.3531C71.7395 17.4809 71.861 17.559 71.929 17.6747C71.9833 17.7665 72.0434 17.8538 72.0988 17.9426C72.0699 17.8875 72.0529 17.8284 72.0479 17.7704C72.0998 17.6931 72.1887 17.5446 72.0597 17.4536C72.1303 17.2387 71.9589 17.0025 71.8281 16.8394L72.3077 17.382C72.6095 18.2216 73.3929 18.9618 73.4017 19.8934C73.3164 20.3067 73.7373 20.7201 73.7828 21.1589C73.8521 21.3261 73.9173 21.4934 73.9842 21.6614C74.1417 22.0607 74.2869 22.4655 74.4147 22.8724C74.584 23.4053 74.7341 23.9395 74.8646 24.4765C74.9736 24.9171 75.0569 25.3598 75.1139 25.8012C75.1213 26.0012 75.161 26.2031 75.2305 26.4027C75.2695 26.8866 75.3191 27.3694 75.3437 27.8529C75.3528 28.0264 75.3583 28.1984 75.3632 28.372C75.3962 28.1362 75.4526 27.9041 75.5343 27.6815C75.471 27.9484 75.4394 28.2409 75.3649 28.5103C75.3728 29.0216 75.3586 29.5314 75.3145 30.0383C75.2461 30.8184 75.156 31.5954 75.0042 32.3611C74.9186 32.7862 74.8503 33.2144 74.7497 33.6355C74.6187 34.1812 74.4672 34.7209 74.2928 35.2553C73.969 36.2419 73.5559 37.1965 73.0606 38.1116C72.7716 38.6489 72.4535 39.17 72.1076 39.6773C71.4808 40.5957 70.7711 41.4658 69.9839 42.278C69.9119 42.3596 69.8185 42.4265 69.7133 42.4753C69.5096 42.572 69.3324 42.7025 69.1868 42.8585C69.07 42.9658 68.9611 43.0795 68.8491 43.1904C68.8629 43.1922 68.8754 43.1918 68.8873 43.1878C68.5087 43.5128 68.196 44.0088 67.7706 44.277L67.6152 44.2508C67.5443 44.3074 67.4678 44.3569 67.384 44.3984C67.1616 44.5612 66.9336 44.7168 66.7068 44.8745C66.617 44.9376 66.5147 44.9841 66.4133 45.0394C66.3355 44.9608 66.2139 44.9491 66.1751 44.8325C66.2228 44.8045 66.2911 44.7877 66.3152 44.7458C66.3513 44.6829 66.4487 44.7094 66.4679 44.6639C66.2826 44.7114 66.1136 44.7872 65.9674 44.8903C65.6134 44.6176 65.245 44.9924 64.9434 45.1185C64.856 45.1859 64.7558 45.2383 64.6444 45.2763C64.6559 45.284 64.6675 45.2917 64.6784 45.301C65.3756 46.9948 63.1395 46.3265 62.3092 46.9677L62.2967 47.0888C62.0346 47.0496 61.7769 46.9492 61.5387 47.0057C60.8613 48.0971 58.9614 47.7543 58.6309 48.7145C58.2199 48.8182 57.7998 48.9133 57.3736 49.0028C57.9236 48.9412 58.4652 48.8527 58.9973 48.7402M31.8599 36.8401C31.8049 37.2716 31.907 37.7248 32.1546 38.1376C32.2091 38.2397 32.279 38.334 32.3424 38.4344C32.4936 38.675 32.6572 38.91 32.8333 39.1394C33.0149 39.3761 33.2041 39.6088 33.3992 39.837C33.6633 40.1455 33.9244 40.4563 34.1938 40.7617C34.4342 41.0341 34.6917 41.2942 34.9292 41.5689C35.2818 41.977 35.6261 42.3906 35.9705 42.8041C36.1585 43.0347 36.3777 43.2481 36.6203 43.438C37.2401 43.9212 37.8838 44.3794 38.5524 44.8096C39.1823 45.2167 39.8341 45.593 40.503 45.94C40.8311 46.106 41.1573 46.2713 41.4911 46.4275C41.5437 46.4525 41.5945 46.4767 41.6471 46.5016C41.7307 46.477 41.8094 46.4437 41.8794 46.4003C41.8462 46.2416 41.6644 46.3347 41.602 46.2262C41.7439 46.2388 41.8733 46.3232 41.9874 46.2727C42.0424 46.4175 42.15 46.5158 42.0036 46.6358C42.1811 46.6363 42.3568 46.7075 42.4847 46.8288C42.4471 46.8299 42.4107 46.8332 42.3749 46.8351C42.4849 46.8832 42.5954 46.93 42.7065 46.9752C43.1888 47.1703 43.6756 47.3536 44.1651 47.5243C44.3136 47.4646 44.4405 47.3746 44.5387 47.262L43.2779 47.1971C43.4514 47.1315 43.5042 46.9253 43.6959 47.0144C44.0906 47.0525 44.4522 46.9098 44.6492 46.6389C44.6037 46.6115 44.5617 46.5804 44.525 46.5462L44.5027 46.4902L44.5675 46.4993C44.6193 46.5154 44.6729 46.5322 44.7247 46.5483C44.7449 46.5219 44.7646 46.497 44.7838 46.4736C44.0484 46.1492 43.386 46.4489 42.6017 46.271L42.8883 46.0695L42.7569 46.0507L43.0197 45.7534C42.3014 45.9217 42.1536 45.0738 41.4433 45.1822C41.6135 45.0099 42.0104 45.1576 42.1157 44.9712C41.937 44.8971 41.7598 44.8134 41.5885 44.7251C41.3729 44.6117 41.1442 44.5222 40.9292 44.4072C40.5494 44.2031 40.1789 43.9854 39.8008 43.7767C39.0581 43.351 38.342 42.8876 37.6585 42.3872C37.573 42.3397 37.5108 42.2636 37.4884 42.1804C37.4646 42.0898 37.3968 42.0065 37.3064 41.9503C37.1364 41.8201 36.9693 41.6875 36.8069 41.5481C36.6317 41.3989 36.4669 41.2383 36.2923 41.0875C36.1575 40.979 36.0291 40.8644 35.9096 40.7428C35.7756 40.5938 35.6275 40.4548 35.466 40.3294C35.3133 40.1971 35.1676 40.0572 35.0349 39.9104C35.0208 39.8983 35.0044 39.887 34.9893 39.8779C34.931 39.89 34.8728 39.9293 34.8139 39.8663C34.7948 39.8455 34.7747 39.8277 34.7556 39.807C34.4889 39.5331 34.2426 39.2432 34.0206 38.9438C33.922 38.7995 33.8004 38.6671 33.687 38.5292C33.5586 38.3873 33.4402 38.2408 33.3306 38.0873C33.2348 37.9356 33.0699 37.8413 32.9805 37.6835C32.9411 37.6126 32.8201 37.5772 32.777 37.5049C32.64 37.2816 32.4091 37.1539 32.2185 36.9853C32.1202 36.9007 32.0143 36.8251 31.9003 36.7601C31.8848 36.7849 31.8724 36.8125 31.8623 36.8393M32.9949 36.6298C33.0249 36.7091 33.0657 36.7874 33.1118 36.8625C33.3797 37.2048 33.6099 37.5702 33.8654 37.918C34.161 38.3183 34.4877 38.6963 34.7916 39.0912C34.862 39.184 34.9566 39.2621 35.0371 39.3502C35.1176 39.4383 35.1916 39.5325 35.2721 39.6206C35.3452 39.7008 35.4242 39.7764 35.5002 39.8543C35.5948 39.9324 35.6771 40.0212 35.7446 40.1163C35.8041 40.2271 35.9117 40.2761 35.9908 40.3569C36.1704 40.5384 36.3449 40.7282 36.5421 40.8959C37.0586 41.3352 37.5751 41.7744 38.1096 42.1932C38.8245 42.753 39.5861 43.2658 40.3845 43.7245C40.5852 43.8391 40.7835 43.9546 40.9847 44.0677L41.154 43.9087C41.1082 43.866 41.061 43.821 41.0163 43.7753C40.4849 43.5073 39.9931 43.1725 39.5616 42.7874C39.5168 42.7858 39.4708 42.7872 39.426 42.7908C39.4672 42.7858 39.5101 42.7816 39.5506 42.7782C39.2901 42.5645 39.0338 42.3507 38.7769 42.1605C38.365 41.2677 37.4139 41.1102 37.107 40.1583C35.1432 38.5248 33.8857 36.1185 33.1187 33.8969C32.6799 33.3883 32.56 32.8451 32.4402 32.307L31.9649 32.2029C31.9428 32.322 31.8563 32.4255 31.9386 32.5363C31.7307 32.6604 31.6486 33.131 31.4516 33.2591C31.5026 33.4092 31.5571 33.5607 31.6128 33.7091C31.7605 34.1183 31.9319 34.5246 32.1265 34.9242C32.4144 35.4933 32.7058 36.0586 32.9942 36.6262M28.5721 13.0635L28.6334 13.0764C28.6639 13.0063 28.6973 12.9339 28.7373 12.8605C28.6829 12.9284 28.6266 12.9956 28.5739 13.0642M41.8355 5.18028C41.7931 5.23235 41.7497 5.21599 41.7067 5.17092C41.6894 5.24431 41.6202 5.29646 41.5313 5.3021C41.1195 5.397 40.7103 5.49624 40.3089 5.62394C39.9538 5.73847 39.5892 5.83415 39.2304 5.94217C39.1628 5.96262 39.1046 6.00192 39.0389 6.02819C38.7738 6.13411 38.5119 6.24802 38.2392 6.33577C38.1454 6.35995 38.0535 6.38997 37.9641 6.42433C37.8519 6.47557 37.731 6.51676 37.6144 6.56298C37.5055 6.60529 37.3978 6.64976 37.2895 6.69058C37.1685 6.72663 37.0507 6.77068 36.9359 6.81758C36.8344 6.86775 36.7516 6.95049 36.6259 6.96607C36.5816 6.99022 36.5414 7.03119 36.4919 7.03637C36.3581 7.0625 36.2332 7.10897 36.1237 7.17485L35.0126 7.72223C34.9355 7.79007 34.83 7.82859 34.7124 7.83362C34.7767 7.75071 34.8666 7.68764 34.9762 7.64899C35.3112 7.47251 35.6437 7.29168 35.9831 7.12022C36.1625 7.02794 36.3524 6.95153 36.5386 6.86861C36.7784 6.75831 37.0164 6.64217 37.2613 6.54055C37.6072 6.39538 37.957 6.25673 38.3086 6.1239C38.5425 6.03512 38.7845 5.96303 39.0228 5.88442C39.3701 5.76865 39.7168 5.65438 40.0654 5.54078C40.226 5.48734 40.3911 5.44407 40.551 5.38697C40.5652 5.38213 40.5769 5.37294 40.582 5.35954C40.5629 5.33877 40.5539 5.31328 40.5587 5.28959C40.5575 5.28742 40.5544 5.28456 40.5532 5.28239C39.6821 5.4832 38.835 5.73554 38.0142 6.03345L38.0676 5.87506C38.0515 5.87923 38.0316 5.87173 38.0205 5.85735C37.9254 5.90144 37.8247 5.93835 37.7352 5.98964C37.4388 6.15686 37.1429 6.32258 36.8533 6.49917C36.5724 6.66886 36.2664 6.81208 35.9435 6.92343C35.9115 6.93176 35.8787 6.93643 35.8447 6.93893L35.799 6.82991C35.3877 6.96748 35.0119 7.16434 34.6883 7.41482C34.4239 7.59579 34.1772 7.79536 33.9257 7.99139C33.5779 8.27867 33.1639 8.50023 32.7038 8.64665C32.4762 8.71904 32.2808 8.84272 32.1331 9.0047C32.0754 9.0646 32.0336 9.13726 31.9759 9.19715C31.8152 9.36615 31.7105 9.57835 31.4921 9.70862C31.3224 9.80797 31.1942 9.96199 31.0308 10.0722C30.697 10.3222 30.3828 10.5916 30.0929 10.8786C29.9046 11.044 29.7457 11.2357 29.5721 11.4169L29.6751 11.4506C29.689 11.4796 29.7052 11.5078 29.7202 11.5339C29.797 11.4506 29.8757 11.368 29.9555 11.2875C30.2039 11.0393 30.4584 10.7968 30.7234 10.5651C31.0152 10.3111 31.3212 10.0693 31.6204 9.82323C31.8509 9.62268 32.093 9.43502 32.3432 9.2589C32.5934 9.08278 32.8546 8.91589 33.1195 8.75551L33.3938 8.58675L33.5068 8.51709C33.529 8.49655 33.5542 8.47885 33.5825 8.46401C33.6374 8.43364 33.7064 8.42052 33.7752 8.42432L33.6554 8.51185L33.6014 8.55102L33.1569 8.8427L32.5893 9.25292C33.1755 9.03498 34.2124 9.206 34.7557 8.84951L34.7778 8.73034C35.0374 8.78725 35.2871 8.90335 35.5311 8.86431C36.0213 8.19882 36.968 8.15397 37.6934 7.96125C37.6926 7.88105 37.7321 7.8092 37.8014 7.7622C37.9139 7.69403 38.0442 7.6496 38.1867 7.63351L38.4929 7.50059C38.3017 7.31133 38.3058 7.04255 38.5019 6.90045C38.5271 6.88276 38.5536 6.86724 38.5832 6.85457C38.6451 6.82178 38.7145 6.80201 38.7904 6.79824C38.9227 6.78688 39.0385 6.73185 39.1146 6.6449C39.1654 6.59773 39.2101 6.54486 39.2634 6.50203C39.4067 6.35196 39.6356 6.28173 39.876 6.31272C39.9482 6.32968 40.022 6.34216 40.0975 6.35018C40.1837 6.35714 40.2692 6.38252 40.3456 6.42658C40.4151 6.36264 40.47 6.28812 40.5044 6.20244C40.5993 6.03248 40.9314 6.14388 40.9297 5.90693C40.7065 5.87393 40.4828 5.8866 40.278 5.94211C40.8279 5.68331 41.3303 5.36412 41.8975 5.17472C41.8731 5.15706 41.8771 5.12455 41.8937 5.09681C41.8753 5.12387 41.8563 5.15241 41.836 5.17879M44.8438 4.60417C44.8438 4.60417 44.8575 4.60596 44.8653 4.6072C44.8581 4.60447 44.8515 4.60541 44.8438 4.60417ZM45.6163 4.7199C45.4409 4.75244 45.2615 4.77333 45.0788 4.78107C44.949 4.77469 44.8207 4.78079 44.6951 4.80152C44.4615 4.82919 44.2313 4.87002 43.9976 4.89255C44.6696 4.90754 45.3333 4.82415 46.0138 4.93751C46.0593 4.67925 46.4264 4.92281 46.5542 4.77542L46.3803 4.70487L47.6041 4.70315C47.6848 4.68084 47.7693 4.66503 47.8533 4.65587C47.7787 4.65665 47.7022 4.65676 47.6275 4.65755C46.9548 4.66613 46.2843 4.69084 45.6145 4.71922M51.9463 3.19092L51.9426 3.18956L51.9457 3.19241L51.9463 3.19092C52.318 3.24076 52.6885 3.28843 53.0603 3.33827C52.6885 3.28843 52.3186 3.23927 51.9463 3.19092ZM55.0962 2.58993C55.2017 2.60587 55.3086 2.62398 55.4143 2.64507C55.3091 2.62249 55.2041 2.60506 55.0962 2.58993ZM55.517 2.66845C55.6559 2.70032 55.7937 2.74031 55.9306 2.78842C55.7955 2.74099 55.6577 2.701 55.517 2.66845ZM58.1057 3.1193C58.5122 3.26892 58.9181 3.42003 59.3241 3.57115L59.3202 3.58157L59.3199 3.59335L59.3238 3.58293L59.3241 3.57115C58.9181 3.42003 58.5116 3.27041 58.1051 3.12079M58.5961 2.4148C58.6359 2.42978 58.6757 2.44477 58.715 2.46124C58.6752 2.44626 58.6354 2.43127 58.5961 2.4148Z" fill="#C69941"/>
<path d="M48.1911 42.7852V42.9202C48.1461 43.2352 47.9661 43.5952 47.9661 44.0002C47.9661 44.1802 48.0111 44.4052 48.1461 44.6302C48.0111 44.9002 47.6961 45.1252 47.6961 45.4852C47.6961 45.6202 47.7411 45.7102 47.7861 45.8452C47.6511 46.0252 47.6061 46.2502 47.3361 46.2502C47.4261 46.4302 47.4711 46.6102 47.4711 46.8352C47.4711 47.2402 47.3361 47.6452 47.2461 48.0502C46.7511 47.9152 46.7511 47.3302 46.3011 47.1502C46.0761 47.3302 46.2111 47.9152 46.0311 48.1852C45.7161 48.1852 45.7611 47.9602 45.4911 47.9602C45.3111 48.0952 45.4911 48.5002 45.2661 48.5452C44.9961 48.0952 44.4111 47.9152 44.0511 47.5102C43.4211 46.7902 43.2861 45.7102 42.7461 44.9002C42.8361 44.5402 43.1061 44.3602 43.1511 44.0002V43.8652C43.1511 43.6852 42.9711 43.6852 42.9711 43.4602C44.9961 39.1402 45.5361 33.8302 46.9311 28.5652C47.1111 27.9352 47.4711 27.0802 47.4711 26.5402V26.4502C47.4261 26.1802 47.1561 26.0452 47.0661 25.7752C47.0211 25.7302 47.0211 25.6852 47.0211 25.6402C47.0211 25.5052 47.0661 25.3702 47.0661 25.2802V25.1902C46.9761 24.8752 46.7061 24.5152 46.5711 24.0652C46.4811 23.6602 46.4811 23.2552 46.3461 22.8052C46.2561 22.1752 45.8511 21.6352 45.8061 21.1402C45.8061 21.0952 45.9861 20.8702 45.9411 20.8252C45.8511 20.4652 45.6261 20.2852 45.6261 19.9702C45.6261 19.2952 46.8411 17.6752 47.9211 17.3602C48.6411 17.1352 50.0361 17.1802 50.6661 17.0902H50.7111C50.9811 17.0902 51.2961 17.3152 51.5211 17.4952C51.7011 17.4952 51.8361 17.3602 52.0161 17.3602H52.1061C54.1761 18.0802 55.8861 19.1152 57.2361 20.5552C56.7861 21.9502 55.7961 22.8052 55.3461 24.2902C55.1661 24.8752 54.4461 25.5052 54.1761 26.1802C54.0861 26.4502 54.1311 26.7202 54.0411 26.9452C53.7261 27.8002 52.8711 28.2502 52.3761 28.9702C51.8361 29.7352 51.7011 30.7252 51.3411 31.5802C51.1611 31.7152 50.9361 31.8502 50.7111 31.9852C50.0361 34.3702 49.1361 37.0252 48.5961 39.6802C48.4161 40.5802 48.1461 41.5252 48.1461 42.3352C48.1461 42.4702 48.1911 42.6502 48.1911 42.7852Z" fill="black"/>
</svg>
